<?xml version="1.0" encoding="UTF-8"?>
<svg version="1.1" xmlns="http://www.w3.org/2000/svg" width="500" height="500">
<path d="M0 0 C15.93351541 -0.11686752 31.86691487 -0.20500467 47.80075264 -0.25906086 C55.19934553 -0.28482871 62.59767193 -0.31995157 69.99609375 -0.37719727 C76.44553618 -0.42707634 82.89478559 -0.45930135 89.34441555 -0.47044247 C92.75869386 -0.47695382 96.17242003 -0.49222617 99.58652115 -0.52865028 C103.40062566 -0.56490193 107.21358319 -0.56994662 111.02783203 -0.56762695 C112.72068581 -0.59459152 112.72068581 -0.59459152 114.44773865 -0.62210083 C122.99070025 -0.56581331 122.99070025 -0.56581331 126.6857605 2.41047668 C130.30122766 6.45601152 130.1970603 8.60939033 130 14 C129.63631137 16.62519133 129.22869349 19.19539007 128.7409668 21.79614258 C128.60567566 22.54188034 128.47038452 23.2876181 128.33099365 24.05595398 C127.07344841 30.90709746 125.71853457 37.73993535 124.33485699 44.56660938 C123.40894543 49.1387902 122.51517376 53.71222108 121.6965332 58.30493164 C115.94109391 90.41247905 115.94109391 90.41247905 108.7590332 96.3828125 C104.87296949 98.76506033 100.84457652 100.13138186 96.45321655 101.28683472 C92.44820508 102.45111642 88.8934277 104.41704598 85.20703125 106.3359375 C83.80414057 107.01990602 82.39854896 107.69836406 80.99023438 108.37109375 C80.30276123 108.70093262 79.61528809 109.03077148 78.90698242 109.37060547 C77.87021362 109.86778076 77.87021362 109.86778076 76.8125 110.375 C74.67231063 111.40518298 72.53258951 112.43633185 70.39303589 113.46783447 C69.04249703 114.11859683 67.69153924 114.76849063 66.34011841 115.41741943 C62.91711017 117.06325611 59.51643068 118.74372798 56.13671875 120.4765625 C53 122 53 122 51 122 C49.8521046 118.1063907 48.71307407 114.21030674 47.58203125 110.31176758 C47.19641224 108.98717276 46.80842021 107.6632663 46.41796875 106.34008789 C45.85566877 104.43300161 45.30273063 102.52316297 44.75 100.61328125 C44.41484375 99.46641846 44.0796875 98.31955566 43.734375 97.13793945 C43.06573902 94.28089881 42.84716611 91.91578406 43 89 C50.45506521 84.62014919 57.97094345 80.4043367 65.6875 76.5 C66.37005859 76.15001953 67.05261719 75.80003906 67.75585938 75.43945312 C70.692142 73.97278733 72.67253056 73 76 73 C76.13051758 72.33170166 76.26103516 71.66340332 76.39550781 70.97485352 C79.01950691 57.5825779 81.77438109 44.26087773 85 31 C75.1 31 65.2 31 55 31 C54.67 33.64 54.34 36.28 54 39 C53.75554251 40.4124898 53.49369872 41.82232512 53.19970703 43.2253418 C53.04929962 43.94936691 52.89889221 44.67339203 52.743927 45.4193573 C52.58350922 46.17171158 52.42309143 46.92406586 52.2578125 47.69921875 C52.08877411 48.49729446 51.91973572 49.29537018 51.74557495 50.11763 C51.3894026 51.79114441 51.03131461 53.46425218 50.67138672 55.13696289 C50.12466223 57.6890767 49.5915141 60.24380109 49.05859375 62.79882812 C48.70916465 64.4324697 48.35893188 66.06593963 48.0078125 67.69921875 C47.85144318 68.45764572 47.69507385 69.21607269 47.53396606 69.9974823 C46.23585118 75.91658085 44.53272583 80.34598566 39.4375 83.8125 C38.83808594 84.23144531 38.23867188 84.65039062 37.62109375 85.08203125 C36 86 36 86 34 86 C34.37253906 87.11117187 34.74507813 88.22234375 35.12890625 89.3671875 C35.60776085 90.86947646 36.08556934 92.37209914 36.5625 93.875 C36.80935547 94.60203125 37.05621094 95.3290625 37.31054688 96.078125 C40.23477126 105.46859205 37.85895008 114.45681339 35.71484375 123.8203125 C35.49429825 124.80498505 35.27375275 125.78965759 35.04652405 126.8041687 C34.34903268 129.91238459 33.64341434 133.01868748 32.9375 136.125 C32.45974532 138.24727409 31.98252668 140.36966892 31.50585938 142.4921875 C30.34441794 147.66312674 29.1719762 152.83139353 28 158 C14.47 158 0.94 158 -13 158 C-11.7267921 150.36075259 -10.39861641 142.84522868 -8.72509766 135.30053711 C-8.39779915 133.80750061 -8.39779915 133.80750061 -8.06388855 132.28430176 C-7.35008784 129.0313582 -6.63207548 125.77935988 -5.9140625 122.52734375 C-5.41055035 120.23594877 -4.90733094 117.94448944 -4.40438843 115.65296936 C-3.08349949 109.63790283 -1.75914805 103.62360426 -0.43389893 97.60949707 C1.68033126 88.0119481 3.7890445 78.41318522 5.89818192 68.81451607 C6.86009203 64.43973615 7.82415407 60.06543195 8.78890419 55.6912775 C9.23440657 53.66170124 9.67656948 51.63138855 10.11510277 49.60029507 C11.13566645 44.87533097 12.19330297 40.16816354 13.35552979 35.4758606 C13.5613801 34.60943467 13.76723042 33.74300875 13.97931862 32.85032749 C14.36136968 31.24556286 14.76203647 29.64505824 15.18552208 28.05072689 C16.10322844 24.0963028 16.13305241 22.27546808 14.34408569 18.57164001 C12.0914625 15.7549127 9.66697201 13.42343116 7 11 C5.60970041 9.34214275 4.25171457 7.65629716 2.9375 5.9375 C2.36902344 5.22464844 1.80054688 4.51179687 1.21484375 3.77734375 C0 2 0 2 0 0 Z " fill="#144D36" transform="translate(242,145)"/>
<path d="M0 0 C21.69830896 -2.86341321 21.69830896 -2.86341321 28.55712891 1.70214844 C32.76770638 5.88162024 35.92474142 10.71658655 38.78686523 15.89355469 C39.93384972 18.04315479 39.93384972 18.04315479 41.58666134 19.81480694 C43.36420799 22.56310974 43.22104827 23.85503554 42.82655334 27.0695343 C42.70708406 28.04312204 42.58761478 29.01670979 42.46452522 30.01980019 C41.73731739 34.68526188 40.80895271 39.28099849 39.77514648 43.88745117 C39.55066833 44.91318237 39.32619019 45.93891357 39.09490967 46.99572754 C38.36001357 50.34624704 37.61564502 53.69458287 36.87109375 57.04296875 C36.35626813 59.38124345 35.84204086 61.71964996 35.3283844 64.05818176 C33.98135279 70.18322168 32.6262493 76.30644782 31.26940918 82.42932129 C29.88367409 88.68942786 28.50564651 94.95123019 27.12695312 101.21289062 C24.42547398 113.47692378 21.71571889 125.73911263 19 138 C16 138 16 138 13.765625 135.875 C12.93546875 134.92625 12.1053125 133.9775 11.25 133 C10.805354 132.49670166 10.36070801 131.99340332 9.90258789 131.47485352 C8.59378972 129.99019372 7.29668125 128.49525419 6 127 C5.37480469 126.28714844 4.74960938 125.57429688 4.10546875 124.83984375 C2.99808951 123.57686087 1.8951731 122.3099503 0.796875 121.0390625 C-0.56582122 119.49269853 -1.95635461 117.97081044 -3.359375 116.4609375 C-4.16890625 115.58695312 -4.9784375 114.71296875 -5.8125 113.8125 C-6.93591797 112.61560547 -6.93591797 112.61560547 -8.08203125 111.39453125 C-10 109 -10 109 -12 104 C-0.45 104 11.1 104 23 104 C23.33 84.53 23.66 65.06 24 45 C22.22625 49.455 20.4525 53.91 18.625 58.5 C13.21445668 72.05692212 7.64972156 85.54036922 2 99 C-7.24 99.33 -16.48 99.66 -26 100 C-23.4940625 102.6915625 -23.4940625 102.6915625 -20.9375 105.4375 C-18.94517377 107.61328714 -16.97019863 109.80416979 -15 112 C-13.84951172 113.28197266 -13.84951172 113.28197266 -12.67578125 114.58984375 C-12.04027344 115.34394531 -11.40476563 116.09804688 -10.75 116.875 C-10.18796875 117.53242188 -9.6259375 118.18984375 -9.046875 118.8671875 C-7.54743971 121.92200716 -8.25541789 123.69974931 -9 127 C-9.91326434 129.41873432 -10.85983445 131.75516251 -11.90625 134.11328125 C-12.19101196 134.76830124 -12.47577393 135.42332123 -12.76916504 136.09819031 C-13.36784759 137.47187313 -13.96974725 138.84415793 -14.57470703 140.21508789 C-15.50360143 142.32066356 -16.42251614 144.43037849 -17.33984375 146.54101562 C-17.92390729 147.87785417 -18.50852304 149.21445161 -19.09375 150.55078125 C-19.36981079 151.18301102 -19.64587158 151.81524078 -19.93029785 152.46662903 C-21.88295829 156.88295829 -21.88295829 156.88295829 -23 158 C-24.35094982 158.09268999 -25.70667091 158.11747326 -27.06079102 158.11352539 C-27.92160782 158.11344986 -28.78242462 158.11337433 -29.66932678 158.11329651 C-30.60473801 158.10813522 -31.54014923 158.10297394 -32.50390625 158.09765625 C-33.45692123 158.0962413 -34.40993622 158.09482635 -35.39183044 158.09336853 C-38.44875165 158.08775152 -41.50560077 158.07519616 -44.5625 158.0625 C-46.62955624 158.05748719 -48.69661362 158.05292391 -50.76367188 158.04882812 C-55.84247588 158.03777656 -60.9212257 158.02050055 -66 158 C-65.32345044 153.60951349 -63.77179479 149.73290329 -62.03515625 145.67578125 C-61.73046921 144.95379044 -61.42578217 144.23179962 -61.11186218 143.4879303 C-60.10008072 141.09411143 -59.08140029 138.70329657 -58.0625 136.3125 C-57.34571642 134.62138882 -56.62925113 132.93014269 -55.91308594 131.23876953 C-53.6169846 125.82231563 -51.3100074 120.41053576 -49 115 C-48.42303375 113.64856903 -48.42303375 113.64856903 -47.83441162 112.26983643 C-42.56253435 99.92611117 -37.2699369 87.59130472 -31.97076416 75.25927734 C-24.57244314 58.04102832 -17.20838306 40.8084945 -9.875 23.5625 C-9.49656952 22.67294617 -9.11813904 21.78339233 -8.72824097 20.86688232 C-7.64895928 18.32947699 -6.57044383 15.79174745 -5.4921875 13.25390625 C-5.16878891 12.49373703 -4.84539032 11.73356781 -4.51219177 10.95036316 C-2.96874888 7.31502198 -1.44786617 3.67483084 0 0 Z " fill="#090909" transform="translate(210,145)"/>
<path d="M0 0 C0.33 0 0.66 0 1 0 C3.84387507 13.98669466 -0.60309925 27.4738661 -4 41 C-7 41 -7 41 -9.234375 38.875 C-10.06453125 37.92625 -10.8946875 36.9775 -11.75 36 C-12.194646 35.49670166 -12.63929199 34.99340332 -13.09741211 34.47485352 C-14.40621028 32.99019372 -15.70331875 31.49525419 -17 30 C-17.62519531 29.28714844 -18.25039062 28.57429688 -18.89453125 27.83984375 C-20.00191049 26.57686087 -21.1048269 25.3099503 -22.203125 24.0390625 C-23.56582122 22.49269853 -24.95635461 20.97081044 -26.359375 19.4609375 C-27.16890625 18.58695312 -27.9784375 17.71296875 -28.8125 16.8125 C-29.56144531 16.01457031 -30.31039062 15.21664063 -31.08203125 14.39453125 C-33 12 -33 12 -35 7 C-23.45 7 -11.9 7 0 7 C0 4.69 0 2.38 0 0 Z " fill="#1C1C1C" transform="translate(233,242)"/>
<path d="M0 0 C0.99 0.33 1.98 0.66 3 1 C2.67 2.65 2.34 4.3 2 6 C2.66 6.33 3.32 6.66 4 7 C4.99 8.485 4.99 8.485 6 10 C9.37705625 9.46274105 12.696686 8.88935377 16 8 C16 8.66 16 9.32 16 10 C16.66 10.33 17.32 10.66 18 11 C16.04414675 12.00484204 14.08523763 13.00373805 12.125 14 C11.03445313 14.556875 9.94390625 15.11375 8.8203125 15.6875 C6 17 6 17 4 17 C3.32844651 14.73050898 2.6626037 12.4596039 2 10.1875 C1.443125 8.29064453 1.443125 8.29064453 0.875 6.35546875 C0 3 0 3 0 0 Z " fill="#476F5E" transform="translate(289,250)"/>
<path d="M0 0 C0.12375 0.639375 0.2475 1.27875 0.375 1.9375 C0.684375 2.9584375 0.684375 2.9584375 1 4 C1.66 4.33 2.32 4.66 3 5 C2.73445312 5.58265625 2.46890625 6.1653125 2.1953125 6.765625 C-0.67108953 13.41902534 -2.06385419 19.83109392 -3 27 C-3.66 27 -4.32 27 -5 27 C-4.32969264 20.90373091 -3.23964287 14.99077746 -1.9375 9 C-1.75123047 8.12988281 -1.56496094 7.25976562 -1.37304688 6.36328125 C-0.9183875 4.24153748 -0.45962195 2.12067429 0 0 Z " fill="#597D70" transform="translate(252,195)"/>
<path d="M0 0 C4.41897105 6.62845658 5.48345507 14.00723699 4.51953125 21.80859375 C4 24 4 24 2 28 C1.67 25.03 1.34 22.06 1 19 C1.33 19 1.66 19 2 19 C2.04125 17.72125 2.0825 16.4425 2.125 15.125 C2.14820313 14.40570313 2.17140625 13.68640625 2.1953125 12.9453125 C2.18331689 10.76136355 2.18331689 10.76136355 0 9 C-0.1953125 6.8359375 -0.1953125 6.8359375 -0.125 4.375 C-0.10695313 3.55773437 -0.08890625 2.74046875 -0.0703125 1.8984375 C-0.04710937 1.27195313 -0.02390625 0.64546875 0 0 Z " fill="#6A8C7F" transform="translate(276,234)"/>
<path d="M0 0 C0.66 0 1.32 0 2 0 C1.58846263 4.97093824 1.20399168 9.44508386 -1 14 C-1.66 14 -2.32 14 -3 14 C-2.09276387 9.31261335 -1.0452733 4.65806256 0 0 Z " fill="#5D7E70" transform="translate(355,224)"/>
<path d="M0 0 C1.12758089 3.38274266 0.81750262 4.76778223 0.0625 8.1875 C-0.13214844 9.08855469 -0.32679688 9.98960937 -0.52734375 10.91796875 C-0.68332031 11.60503906 -0.83929688 12.29210937 -1 13 C-1.33 13 -1.66 13 -2 13 C-3.35384615 5.73846154 -3.35384615 5.73846154 -1.5625 2 C-1.046875 1.34 -0.53125 0.68 0 0 Z " fill="#5B8272" transform="translate(369,165)"/>
<path d="M0 0 C0.33 0 0.66 0 1 0 C1.08121924 1.60332791 1.13929134 3.20784026 1.1875 4.8125 C1.23970703 6.15248047 1.23970703 6.15248047 1.29296875 7.51953125 C0.95081002 10.41647515 0.24606427 11.22555028 -2 13 C-1.85769192 11.58297487 -1.71099254 10.1663904 -1.5625 8.75 C-1.48128906 7.96109375 -1.40007812 7.1721875 -1.31640625 6.359375 C-1.02365007 4.17635361 -0.57935581 2.1226818 0 0 Z " fill="#5A8072" transform="translate(234,278)"/>
<path d="M0 0 C-3.1254959 2.64465038 -6.08788267 3.84414715 -10 5 C-10 4.34 -10 3.68 -10 3 C-6.58168085 0.4606772 -4.24223102 -0.3636198 0 0 Z " fill="#4C6F60" transform="translate(317,255)"/>
<path d="M0 0 C0.33 0 0.66 0 1 0 C2.19876651 5.44893869 1.91360308 8.22169095 -1 13 C-2.07310858 9.72814447 -1.89263102 7.57052408 -1.0625 4.25 C-0.86785156 3.45078125 -0.67320312 2.6515625 -0.47265625 1.828125 C-0.31667969 1.22484375 -0.16070312 0.6215625 0 0 Z " fill="#6D8E81" transform="translate(242,241)"/>
<path d="M0 0 C2.0625 2.0625 2.0625 2.0625 4 5 C3.75 8.8125 3.75 8.8125 3 12 C0.60926555 8.17482487 0.44033448 4.40334476 0 0 Z " fill="#648579" transform="translate(285,234)"/>
<path d="M0 0 C0.33 0 0.66 0 1 0 C2.19876651 5.44893869 1.91360308 8.22169095 -1 13 C-2.07310858 9.72814447 -1.89263102 7.57052408 -1.0625 4.25 C-0.86785156 3.45078125 -0.67320312 2.6515625 -0.47265625 1.828125 C-0.31667969 1.22484375 -0.16070312 0.6215625 0 0 Z " fill="#6B8B7E" transform="translate(323,193)"/>
<path d="M0 0 C2.97 0 5.94 0 9 0 C7.3125 1.5625 7.3125 1.5625 5 3 C2.25 2.6875 2.25 2.6875 0 2 C0 1.34 0 0.68 0 0 Z " fill="#265544" transform="translate(243,146)"/>
<path d="M0 0 C0.33 0 0.66 0 1 0 C0.67 2.97 0.34 5.94 0 9 C-0.66 9 -1.32 9 -2 9 C-1.125 1.125 -1.125 1.125 0 0 Z " fill="#4B7363" transform="translate(249,213)"/>
</svg>
